<mxfile host="app.diagrams.net" modified="2023-09-03T07:59:41.615Z" agent="Mozilla/5.0 (Linux; Android 10; K) AppleWebKit/537.36 (KHTML, like Gecko) Chrome/116.0.0.0 Mobile Safari/537.36" version="21.7.2" etag="b_8YrWHcrrKwtm1CaH_X" type="github">
  <diagram name="Page-1" id="2fZrGuapUQPYxdLzHm9u">
    <mxGraphModel>
      <root>
        <mxCell id="0" />
        <mxCell id="1" parent="0" />
      </root>
    </mxGraphModel>
  </diagram>
</mxfile>
